# xmcd
#
# Track frame offsets: 
#        150
#        23475
#        42900
#        64275
#        92475
#        114900
#        139125
#        157725
#        177300
#        201525
#        220050
#        236700
#
# Disc length: 3318 seconds
#
# Revision: 0
# Processed by: cddbd v1.5.2PL0 Copyright (c) Steve Scherf et al.
# Submitted via: ExactAudioCopyFreeDBPlugin 1.0
#
DISCID=9f0cf40c
DTITLE=弦在燒 - 中國 . 琵琶 . 古箏 [Disc 1]
DYEAR=2009
DGENRE=Country
TTITLE0=My Heart Will Go On
TTITLE1=The Color Of The Wind
TTITLE2=Love Me Tender
TTITLE3=Oh! Carol
TTITLE4=The Power Of Love
TTITLE5=Nothing Gonna Change My Love
TTITLE6=The Greatest Love Of All
TTITLE7=I Swear
TTITLE8=Close To You
TTITLE9=Massachusett
TTITLE10=Bridge Over Trouble Water
TTITLE11=The Top Of World
EXTD=
EXTT0=
EXTT1=
EXTT2=
EXTT3=
EXTT4=
EXTT5=
EXTT6=
EXTT7=
EXTT8=
EXTT9=
EXTT10=
EXTT11=
PLAYORDER=
